HIERARCHY
ROOT Hips
{
	OFFSET 0.000000 0.000000 0.000000
	CHANNELS 6 Xposition Yposition Zposition Xrotation Yrotation Zrotation
	JOINT LeftUpLeg_virtual
	{
		OFFSET 0.000000 0.000000 0.000000
		CHANNELS 3 Xrotation Yrotation Zrotation
		JOINT LeftUpLeg
		{
			OFFSET 13.026900 -6.336304 -1.092800
			CHANNELS 3 Xrotation Yrotation Zrotation
			JOINT LeftLeg
			{
				OFFSET 0.524474 -46.096886 9.782700
				CHANNELS 3 Xrotation Yrotation Zrotation
				JOINT LeftFoot
				{
					OFFSET -0.524474 -53.427422 -12.948200
					CHANNELS 3 Xrotation Yrotation Zrotation
					JOINT LeftToeBase
					{
						OFFSET 0.192200 -14.009700 16.364100
						CHANNELS 3 Xrotation Yrotation Zrotation
						JOINT LeftToe_End
						{
							OFFSET -1.784700 -0.561700 9.474800
							CHANNELS 3 Xrotation Yrotation Zrotation
							End Site
							{
								OFFSET 0 0 0
							}
						}
					}
				}
			}
		}
	}
	JOINT RightUpLeg_virtual
	{
		OFFSET 0.000000 0.000000 0.000000
		CHANNELS 3 Xrotation Yrotation Zrotation
		JOINT RightUpLeg
		{
			OFFSET -12.883000 -6.336304 -1.092800
			CHANNELS 3 Xrotation Yrotation Zrotation
			JOINT RightLeg
			{
				OFFSET -0.524587 -46.096825 9.782800
				CHANNELS 3 Xrotation Yrotation Zrotation
				JOINT RightFoot
				{
					OFFSET 0.524587 -53.427383 -12.948300
					CHANNELS 3 Xrotation Yrotation Zrotation
					JOINT RightToeBase
					{
						OFFSET -0.192200 -14.009700 16.364100
						CHANNELS 3 Xrotation Yrotation Zrotation
						JOINT RightToe_End
						{
							OFFSET 1.784700 -0.561700 9.474800
							CHANNELS 3 Xrotation Yrotation Zrotation
							End Site
							{
								OFFSET 0 0 0
							}
						}
					}
				}
			}
		}
	}
	JOINT Spine_virtual
	{
		OFFSET 0.000000 0.000000 0.000000
		CHANNELS 3 Xrotation Yrotation Zrotation
		JOINT Spine
		{
			OFFSET 0.072000 7.257294 -0.789700
			CHANNELS 3 Xrotation Yrotation Zrotation
			JOINT Spine1
			{
				OFFSET 0.000000 12.508769 -0.658067
				CHANNELS 3 Xrotation Yrotation Zrotation
				JOINT Spine1_split
				{
					OFFSET 0.000000 12.508769 -0.658067
					CHANNELS 3 Xrotation Yrotation Zrotation
					JOINT Spine2
					{
						OFFSET 0.000000 12.508769 -0.658067
						CHANNELS 3 Xrotation Yrotation Zrotation
						JOINT Neck_virtual
						{
							OFFSET 0.000000 0.000000 0.000000
							CHANNELS 3 Xrotation Yrotation Zrotation
							JOINT Neck
							{
								OFFSET 0.000000 14.033295 7.520400
								CHANNELS 3 Xrotation Yrotation Zrotation
								JOINT Head
								{
									OFFSET 0.000000 8.198502 5.703100
									CHANNELS 3 Xrotation Yrotation Zrotation
									JOINT HeadTop_End
									{
										OFFSET 0.000000 17.760803 13.332701
										CHANNELS 3 Xrotation Yrotation Zrotation
										End Site
										{
											OFFSET 0 0 0
										}
									}
								}
							}
						}
						JOINT LeftShoulder_virtual
						{
							OFFSET 0.000000 0.000000 0.000000
							CHANNELS 3 Xrotation Yrotation Zrotation
							JOINT LeftShoulder
							{
								OFFSET 6.292450 5.785301 -0.669000
								CHANNELS 3 Xrotation Yrotation Zrotation
								JOINT LeftShoulder_split
								{
									OFFSET 6.292450 5.785301 -0.669000
									CHANNELS 3 Xrotation Yrotation Zrotation
									JOINT LeftArm
									{
										OFFSET 13.907140 -6.093903 1.965100
										CHANNELS 3 Xrotation Yrotation Zrotation
										JOINT LeftForeArm
										{
											OFFSET 34.140198 0.000000 0.000000
											CHANNELS 3 Xrotation Yrotation Zrotation
											JOINT LeftHand
											{
												OFFSET 40.960209 0.000000 0.000000
												CHANNELS 3 Xrotation Yrotation Zrotation
												End Site
												{
													OFFSET 0 0 0
												}
											}
										}
									}
								}
							}
						}
						JOINT RightShoulder_virtual
						{
							OFFSET 0.000000 0.000000 0.000000
							CHANNELS 3 Xrotation Yrotation Zrotation
							JOINT RightShoulder
							{
								OFFSET -6.292450 5.785301 -0.669000
								CHANNELS 3 Xrotation Yrotation Zrotation
								JOINT RightShoulder_split
								{
									OFFSET -6.292450 5.785301 -0.669000
									CHANNELS 3 Xrotation Yrotation Zrotation
									JOINT RightArm
									{
										OFFSET -13.907140 -6.093903 1.965100
										CHANNELS 3 Xrotation Yrotation Zrotation
										JOINT RightForeArm
										{
											OFFSET -34.140198 0.000000 0.000000
											CHANNELS 3 Xrotation Yrotation Zrotation
											JOINT RightHand
											{
												OFFSET -40.960209 0.000000 0.000000
												CHANNELS 3 Xrotation Yrotation Zrotation
												End Site
												{
													OFFSET 0 0 0
												}
											}
										}
									}
								}
							}
						}
					}
				}
			}
		}
	}
}
MOTION
Frames: 4
Frame Time: 0.03333333
-0.260514 119.488533 -4.003769 0.000000 0.000000 0.000000 -86.913802 -6.675429 -1.014410 3.828477 22.500658 12.876460 -3.359263 -0.209146 2.641209 14.458551 27.809084 -20.842005 -2.358914 -0.458847 -0.121750 0.000000 0.000000 0.000000 -89.104196 -3.120076 1.138793 2.247367 -24.997840 -16.450304 0.959344 -1.313682 -3.326825 22.372483 -31.000132 25.534222 -8.803833 0.713933 -2.157880 0.000000 0.000000 0.000000 -87.210922 -6.763105 -2.562255 1.206424 -0.267222 -0.082911 -1.377310 0.328879 -0.200326 0.737436 0.891545 -0.320922 0.000000 0.000000 0.000000 -1.392808 0.393726 -0.238287 -6.237228 4.155203 -8.462954 5.742080 8.734417 -13.046641 0.000000 0.000000 0.000000 -0.441699 0.391700 -0.080329 0.412242 -5.794084 -0.723456 -0.492635 1.682433 -2.903884 44.235461 -42.019669 -32.580877 4.950014 -86.275480 4.326079 0.000000 0.000000 0.000000 -0.311556 0.706099 -0.424599 0.393023 0.438053 2.704512 7.263756 7.551487 -0.837268 -4.945581 2.095746 81.057249 -179.266456 54.907993 -179.856271 0.000000 0.000000 0.000000 
-0.242502 119.476540 -4.009090 0.000000 0.000000 0.000000 -86.925973 -6.702211 -1.010137 3.853637 22.448708 12.853186 -3.361415 -0.239485 2.638487 14.471895 27.800253 -20.840859 -2.365654 -0.461057 -0.133378 0.000000 0.000000 0.000000 -89.099394 -3.128417 1.157768 2.200244 -24.991126 -16.470550 0.994896 -1.326784 -3.343960 22.375667 -31.034836 25.526254 -8.759249 0.714120 -2.161043 0.000000 0.000000 0.000000 -87.224070 -6.777000 -2.560965 1.209770 -0.268107 -0.071442 -1.379887 0.331386 -0.199826 0.744687 0.886527 -0.311813 0.000000 0.000000 0.000000 -1.401332 0.401150 -0.243318 -6.217708 4.206264 -8.463648 6.312541 8.892698 -13.419521 0.000000 0.000000 0.000000 -0.430399 0.387812 -0.078337 0.402272 -5.816123 -0.773378 -0.495452 1.692830 -2.804753 44.195685 -42.026151 -32.660609 4.868348 -86.243494 4.251210 0.000000 0.000000 0.000000 -0.303796 0.709949 -0.425396 0.399429 0.448242 2.727620 7.259882 7.566303 -0.844384 -4.904623 2.074605 80.961572 -179.263588 54.846088 -179.847173 0.000000 0.000000 0.000000 
-0.223360 119.459045 -4.021935 0.000000 0.000000 0.000000 -86.934709 -6.734653 -1.011302 3.866605 22.390996 12.830737 -3.355710 -0.271706 2.636676 14.479390 27.791577 -20.840072 -2.371666 -0.463813 -0.144705 0.000000 0.000000 0.000000 -89.092496 -3.147880 1.167993 2.147778 -24.988843 -16.486453 1.018591 -1.340616 -3.360560 22.372022 -31.070387 25.511844 -8.715252 0.713670 -2.162380 0.000000 0.000000 0.000000 -87.231829 -6.796359 -2.559102 1.205468 -0.266321 -0.055679 -1.385481 0.337589 -0.199820 0.751234 0.899292 -0.291371 0.000000 0.000000 0.000000 -1.417389 0.409880 -0.246662 -6.192833 4.279747 -8.476217 7.068428 9.079676 -13.924165 0.000000 0.000000 0.000000 -0.421955 0.386866 -0.073015 0.388214 -5.822365 -0.832976 -0.493036 1.692996 -2.712901 44.177370 -42.040753 -32.687557 4.694109 -86.217888 4.082741 0.000000 0.000000 0.000000 -0.298332 0.714118 -0.429432 0.401715 0.415187 2.739823 7.279135 7.600626 -0.845472 -4.861172 2.054583 80.873538 -179.251553 54.770440 -179.853784 0.000000 0.000000 0.000000 
-0.205025 119.439194 -4.042915 0.000000 0.000000 0.000000 -86.938630 -6.768679 -1.018200 3.865810 22.332045 12.811338 -3.344825 -0.305314 2.635950 14.481230 27.782995 -20.842044 -2.378327 -0.466960 -0.154816 0.000000 0.000000 0.000000 -89.082203 -3.174360 1.169403 2.094794 -24.992782 -16.496712 1.023779 -1.354358 -3.374820 22.364906 -31.100836 25.494801 -8.675198 0.712845 -2.162916 0.000000 0.000000 0.000000 -87.232464 -6.820486 -2.559620 1.193370 -0.263581 -0.036315 -1.392759 0.344443 -0.199725 0.750361 0.921415 -0.271033 0.000000 0.000000 0.000000 -1.438497 0.418268 -0.247415 -6.180583 4.366297 -8.490559 7.901757 9.257218 -14.493364 0.000000 0.000000 0.000000 -0.417941 0.387778 -0.065043 0.373051 -5.811629 -0.896048 -0.485942 1.684043 -2.640774 44.187127 -42.063812 -32.669782 4.433597 -86.195225 3.826273 0.000000 0.000000 0.000000 -0.296011 0.716966 -0.435586 0.400405 0.343249 2.738039 7.315207 7.638242 -0.840310 -4.824713 2.038822 80.814108 -179.231841 54.703637 -179.874931 0.000000 0.000000 0.000000 
